<svg width="119" height="118" viewBox="0 0 119 118" fill="none" xmlns="http://www.w3.org/2000/svg">
<g id="Camera_icon">
<path id="Vector" d="M59.4386 85.3042C65.3795 85.3042 70.3577 83.2965 74.3729 79.2812C78.3882 75.266 80.3958 70.2878 80.3958 64.3469C80.3958 58.4059 78.3882 53.4483 74.3729 49.474C70.3577 45.4997 65.3795 43.5125 59.4386 43.5125C53.4976 43.5125 48.5399 45.4997 44.5656 49.474C40.5913 53.4483 38.6042 58.4059 38.6042 64.3469C38.6042 70.2878 40.5913 75.266 44.5656 79.2812C48.5399 83.2965 53.4976 85.3042 59.4386 85.3042ZM59.4386 77.9292C55.5462 77.9292 52.3299 76.6385 49.7896 74.0573C47.2493 71.476 45.9792 68.2392 45.9792 64.3469C45.9792 60.4545 47.2493 57.2382 49.7896 54.6979C52.3299 52.1576 55.5462 50.8875 59.4386 50.8875C63.3309 50.8875 66.5677 52.1576 69.149 54.6979C71.7302 57.2382 73.0208 60.4545 73.0208 64.3469C73.0208 68.2392 71.7302 71.476 69.149 74.0573C66.5677 76.6385 63.3309 77.9292 59.4386 77.9292ZM17.7083 103.25C15.7417 103.25 14.0208 102.513 12.5458 101.037C11.0708 99.5625 10.3333 97.8417 10.3333 95.875V32.8188C10.3333 30.934 11.0708 29.2337 12.5458 27.7177C14.0208 26.2017 15.7417 25.4438 17.7083 25.4438H35.7771L44.75 14.75H74.25L83.2229 25.4438H101.292C103.176 25.4438 104.877 26.2017 106.393 27.7177C107.909 29.2337 108.667 30.934 108.667 32.8188V95.875C108.667 97.8417 107.909 99.5625 106.393 101.037C104.877 102.513 103.176 103.25 101.292 103.25H17.7083ZM101.292 95.875V32.8188H79.7813L70.8083 22.125H48.1917L39.2188 32.8188H17.7083V95.875H101.292Z" fill="black"/>
</g>
</svg>
