<svg width="21" height="21" viewBox="0 0 21 21" fill="none" xmlns="http://www.w3.org/2000/svg">
<path d="M5.50008 11.9166H15.5001V10.6666H5.50008V11.9166ZM5.50008 9.20829H15.5001V7.95829H5.50008V9.20829ZM5.50008 6.49996H15.5001V5.24996H5.50008V6.49996ZM18.8334 18.5833L15.5001 15.25H3.41675C3.0973 15.25 2.80911 15.1215 2.55216 14.8645C2.29522 14.6076 2.16675 14.3194 2.16675 14V3.16663C2.16675 2.84718 2.29522 2.55899 2.55216 2.30204C2.80911 2.0451 3.0973 1.91663 3.41675 1.91663H17.5834C17.9167 1.91663 18.2084 2.0451 18.4584 2.30204C18.7084 2.55899 18.8334 2.84718 18.8334 3.16663V18.5833ZM3.41675 3.16663V14H16.0209L17.5834 15.5625V3.16663H3.41675Z" fill="black"/>
</svg>
