<svg width="21" height="21" viewBox="0 0 21 21" fill="none" xmlns="http://www.w3.org/2000/svg">
<g clip-path="url(#clip0_226_1228)">
<path d="M15.7499 6.83333H16.9999V4.16667H19.6666V2.91667H16.9999V0.25H15.7499V2.91667H13.0833V4.16667H15.7499V6.83333ZM10.5018 10.0417C10.9033 10.0417 11.2464 9.89869 11.5312 9.61273C11.8159 9.32679 11.9583 8.98304 11.9583 8.58148C11.9583 8.17994 11.8153 7.83681 11.5293 7.55208C11.2434 7.26736 10.8996 7.125 10.4981 7.125C10.0965 7.125 9.75339 7.26798 9.46867 7.55394C9.18395 7.83988 9.04158 8.18363 9.04158 8.58519C9.04158 8.98673 9.18456 9.32986 9.47052 9.61458C9.75647 9.89931 10.1002 10.0417 10.5018 10.0417ZM10.4999 18.5833C8.26381 16.6806 6.59367 14.9132 5.4895 13.2812C4.38534 11.6493 3.83325 10.1389 3.83325 8.75C3.83325 6.66667 4.50339 5.00694 5.84367 3.77083C7.18395 2.53472 8.73603 1.91667 10.4999 1.91667C10.736 1.91667 10.9629 1.92708 11.1805 1.94792C11.3981 1.96875 11.6157 2 11.8333 2.04167V3.33333C11.6249 3.27778 11.4096 3.23611 11.1874 3.20833C10.9652 3.18056 10.736 3.16667 10.4999 3.16667C8.98024 3.16667 7.69754 3.68823 6.65183 4.73135C5.60611 5.77448 5.08325 7.11403 5.08325 8.75C5.08325 9.79167 5.53464 10.9965 6.43742 12.3646C7.3402 13.7326 8.69436 15.2569 10.4999 16.9375C12.3471 15.2569 13.7117 13.7326 14.5937 12.3646C15.4756 10.9965 15.9166 9.79167 15.9166 8.75C15.9166 8.63889 15.9131 8.52778 15.9062 8.41667C15.8992 8.30556 15.8888 8.19444 15.8749 8.08333H17.1458C17.1596 8.19444 17.1666 8.30556 17.1666 8.41667V8.75C17.1666 10.1389 16.6145 11.6493 15.5103 13.2812C14.4062 14.9132 12.736 16.6806 10.4999 18.5833Z" fill="black"/>
</g>
<defs>
<clipPath id="clip0_226_1228">
<rect width="20" height="20" fill="white" transform="translate(0.5 0.25)"/>
</clipPath>
</defs>
</svg>
