<svg width="16" height="20" viewBox="0 0 16 20" fill="none" xmlns="http://www.w3.org/2000/svg">
<path d="M8.00209 9.5125C8.45382 9.5125 8.83984 9.3495 9.16016 9.02351C9.48047 8.69753 9.64062 8.30566 9.64062 7.84789C9.64062 7.39013 9.47977 6.99896 9.15807 6.67438C8.83638 6.34979 8.44966 6.1875 7.99791 6.1875C7.54618 6.1875 7.16016 6.3505 6.83984 6.67649C6.51953 7.00247 6.35938 7.39434 6.35938 7.85211C6.35938 8.30987 6.52023 8.70104 6.84193 9.02563C7.16362 9.35021 7.55034 9.5125 8.00209 9.5125ZM8 17.3738C10.0781 15.4579 11.6133 13.7202 12.6055 12.1606C13.5977 10.601 14.0938 9.2275 14.0938 8.04C14.0938 6.17499 13.5055 4.64791 12.3291 3.45874C11.1527 2.26958 9.70964 1.675 8 1.675C6.29036 1.675 4.84733 2.26958 3.67091 3.45874C2.49447 4.64791 1.90625 6.17499 1.90625 8.04C1.90625 9.2275 2.41406 10.601 3.42969 12.1606C4.44531 13.7202 5.96875 15.4579 8 17.3738ZM8 19.25C5.48438 17.0808 3.60547 15.066 2.36328 13.2056C1.12109 11.3452 0.5 9.62333 0.5 8.04C0.5 5.665 1.25391 3.77292 2.76172 2.36375C4.26953 0.954583 6.01562 0.25 8 0.25C9.98438 0.25 11.7305 0.954583 13.2383 2.36375C14.7461 3.77292 15.5 5.665 15.5 8.04C15.5 9.62333 14.8789 11.3452 13.6367 13.2056C12.3945 15.066 10.5156 17.0808 8 19.25Z" fill="black"/>
</svg>
