<svg width="18" height="21" viewBox="0 0 18 21" fill="none" xmlns="http://www.w3.org/2000/svg">
<path d="M8.80229 10.2375C9.31426 10.2375 9.75175 10.0573 10.1148 9.69704C10.4778 9.33675 10.6593 8.90362 10.6593 8.39766C10.6593 7.89172 10.477 7.45937 10.1124 7.10062C9.74783 6.74187 9.30955 6.5625 8.79756 6.5625C8.2856 6.5625 7.8481 6.74265 7.48508 7.10296C7.12206 7.46325 6.94055 7.89638 6.94055 8.40234C6.94055 8.90828 7.12285 9.34062 7.48745 9.69938C7.85203 10.0581 8.29031 10.2375 8.80229 10.2375ZM8.79993 18.9262C11.1551 16.8088 12.895 14.8881 14.0195 13.1644C15.1439 11.4406 15.7062 9.9225 15.7062 8.61C15.7062 6.54868 15.0395 4.86084 13.7062 3.54651C12.373 2.23217 10.7375 1.575 8.79993 1.575C6.86233 1.575 5.2269 2.23217 3.89362 3.54651C2.56032 4.86084 1.89368 6.54868 1.89368 8.61C1.89368 9.9225 2.4692 11.4406 3.62024 13.1644C4.77128 14.8881 6.49784 16.8088 8.79993 18.9262ZM8.79993 21C5.94888 18.6025 3.81946 16.3756 2.41165 14.3194C1.00383 12.2631 0.299927 10.36 0.299927 8.61C0.299927 5.985 1.15435 3.89375 2.86321 2.33625C4.57206 0.77875 6.55097 0 8.79993 0C11.0489 0 13.0278 0.77875 14.7366 2.33625C16.4455 3.89375 17.2999 5.985 17.2999 8.61C17.2999 10.36 16.596 12.2631 15.1882 14.3194C13.7804 16.3756 11.651 18.6025 8.79993 21Z" fill="black"/>
</svg>
