<svg width="19" height="19" viewBox="0 0 19 19" fill="none" xmlns="http://www.w3.org/2000/svg">
<path d="M9 18.25V16.6875C7.09722 16.4931 5.51389 15.7639 4.25 14.5C2.98611 13.2361 2.25694 11.6528 2.0625 9.75H0.5V8.5H2.0625C2.25694 6.59722 2.98611 5.01389 4.25 3.75C5.51389 2.48611 7.09722 1.75694 9 1.5625V0H10.25V1.5625C12.1528 1.75694 13.7361 2.48611 15 3.75C16.2639 5.01389 16.9931 6.59722 17.1875 8.5H18.75V9.75H17.1875C16.9931 11.6528 16.2639 13.2361 15 14.5C13.7361 15.7639 12.1528 16.4931 10.25 16.6875V18.25H9ZM9.625 15.4583C11.3611 15.4583 12.8507 14.8368 14.0938 13.5938C15.3368 12.3507 15.9583 10.8611 15.9583 9.125C15.9583 7.38889 15.3368 5.89931 14.0938 4.65625C12.8507 3.41319 11.3611 2.79167 9.625 2.79167C7.88889 2.79167 6.39931 3.41319 5.15625 4.65625C3.91319 5.89931 3.29167 7.38889 3.29167 9.125C3.29167 10.8611 3.91319 12.3507 5.15625 13.5938C6.39931 14.8368 7.88889 15.4583 9.625 15.4583ZM9.625 12.25C8.75 12.25 8.01042 11.9479 7.40625 11.3438C6.80208 10.7396 6.5 10 6.5 9.125C6.5 8.25 6.80208 7.51042 7.40625 6.90625C8.01042 6.30208 8.75 6 9.625 6C10.5 6 11.2396 6.30208 11.8438 6.90625C12.4479 7.51042 12.75 8.25 12.75 9.125C12.75 10 12.4479 10.7396 11.8438 11.3438C11.2396 11.9479 10.5 12.25 9.625 12.25ZM9.625 11C10.1528 11 10.5972 10.8194 10.9583 10.4583C11.3194 10.0972 11.5 9.65278 11.5 9.125C11.5 8.59722 11.3194 8.15278 10.9583 7.79167C10.5972 7.43056 10.1528 7.25 9.625 7.25C9.09722 7.25 8.65278 7.43056 8.29167 7.79167C7.93056 8.15278 7.75 8.59722 7.75 9.125C7.75 9.65278 7.93056 10.0972 8.29167 10.4583C8.65278 10.8194 9.09722 11 9.625 11Z" fill="black"/>
</svg>
