<svg width="30" height="30" viewBox="0 0 30 30" fill="none" xmlns="http://www.w3.org/2000/svg">
<circle cx="15" cy="15" r="15" fill="white"/>
<circle cx="15" cy="15" r="14.5" stroke="black" stroke-opacity="0.8"/>
<path d="M22.875 24C20.8417 24 18.8208 23.5 16.8125 22.5C14.8042 21.5 13 20.2 11.4 18.6C9.8 17 8.5 15.1958 7.5 13.1875C6.5 11.1792 6 9.15833 6 7.125C6 6.80357 6.10714 6.53571 6.32142 6.32142C6.53571 6.10714 6.80357 6 7.125 6H10.625C10.8519 6 11.0544 6.07917 11.2327 6.2375C11.4109 6.39583 11.525 6.60833 11.575 6.875L12.25 10.025C12.2833 10.2583 12.2792 10.4708 12.2375 10.6625C12.1958 10.8542 12.1083 11.0167 11.975 11.15L9.475 13.675C10.4083 15.225 11.4542 16.575 12.6125 17.725C13.7708 18.875 15.0833 19.85 16.55 20.65L18.925 18.2C19.0917 18.0167 19.2833 17.8875 19.5 17.8125C19.7167 17.7375 19.9333 17.725 20.15 17.775L23.125 18.425C23.3802 18.4812 23.5898 18.6078 23.7539 18.8047C23.918 19.0016 24 19.2333 24 19.5V22.875C24 23.1964 23.8929 23.4643 23.6786 23.6786C23.4643 23.8929 23.1964 24 22.875 24ZM8.725 12.3L10.75 10.25L10.175 7.5H7.5C7.5 8.15 7.6 8.8625 7.8 9.6375C8 10.4125 8.30833 11.3 8.725 12.3ZM17.95 21.375C18.6333 21.6917 19.375 21.95 20.175 22.15C20.975 22.35 21.75 22.4667 22.5 22.5V19.825L19.925 19.3L17.95 21.375Z" fill="black" fill-opacity="0.8"/>
</svg>
